<svg xmlns="http://www.w3.org/2000/svg" viewBox="0 0 73 73"><g id="fundamentals/css/colors" fill="none" fill-rule="evenodd" stroke="none" stroke-width="1"><g id="color-wheel" fill-rule="nonzero" transform="rotate(105 27.28 35.72)"><path id="Shape" fill="#FF4B00" d="m26 0-3.05 5.05L26 9.25l11.84 4.9 5.82-2.77.64-3.68A25.9 25.9 0 0 0 26 0Z"/><path id="Shape" fill="#FF9F00" d="m44.3 7.7-6.46 6.46L42.76 26l4.85 3.05L52 26c0-7.14-3-13.61-7.7-18.3Z"/><path id="Shape" fill="#6B0" d="m42.76 26-4.92 11.84.3 6.4 6.16.06A25.9 25.9 0 0 0 52 26h-9.24Z"/><path id="Shape" fill="#00CC71" d="M37.84 37.84 26 42.76l-3.05 5.04L26 52c7.14 0 13.61-3 18.3-7.7l-6.46-6.46Z"/><path id="Shape" fill="#0095FF" d="m14.16 37.84-6.01-.08-.45 6.54A25.9 25.9 0 0 0 26 52v-9.24l-11.84-4.92Z"/><path id="Shape" fill="#6B77E8" d="m9.24 26-4.47-3.05L0 26c0 7.14 3 13.61 7.7 18.3l6.46-6.46L9.24 26Z"/><path id="Shape" fill="#B760EA" d="M11.58 8.53 7.7 7.7A25.9 25.9 0 0 0 0 26h9.24l4.92-11.84-2.58-5.63Z"/><path id="Shape" fill="#FF193D" d="M26 9.24V0C18.86 0 12.39 3 7.7 7.7l6.46 6.46A16.7 16.7 0 0 1 26 9.24Z"/><path id="Shape" fill="#FF7816" d="m26 9.24-3.05 4.57L26 18.38l5.38 2.24 6.05-3 .41-3.46A16.7 16.7 0 0 0 26 9.24Z"/><path id="Shape" fill="#FDBF00" d="m37.84 14.16-6.46 6.46L33.62 26l4.22 3.05L42.76 26a16.7 16.7 0 0 0-4.92-11.84Z"/><path id="Shape" fill="#7D0" d="m33.62 26-2.24 5.38.73 3.77 5.73 2.7A16.7 16.7 0 0 0 42.76 26h-9.14Z"/><path id="Shape" fill="#00DD7B" d="M31.38 31.38 26 33.62l-3.05 4.76L26 42.76a16.7 16.7 0 0 0 11.84-4.92l-6.46-6.46Z"/><path id="Shape" fill="#3AAAFF" d="m20.62 31.38-6.49.4.03 6.06A16.7 16.7 0 0 0 26 42.76v-9.14l-5.38-2.24Z"/><path id="Shape" fill="#7984EB" d="m18.38 26-4.25-3.05L9.24 26a16.7 16.7 0 0 0 4.92 11.84l6.46-6.46L18.38 26Z"/><path id="Shape" fill="#CB75F6" d="m20.29 14.2-6.13-.04A16.7 16.7 0 0 0 9.24 26h9.14l2.24-5.38-.33-6.43Z"/><path id="Shape" fill="#FF4949" d="m14.16 14.16 6.46 6.46L26 18.38V9.24a16.7 16.7 0 0 0-11.84 4.92Z"/><path id="Shape" fill="#FF9F00" d="M31.38 20.62A7.6 7.6 0 0 0 26 18.38l-3.05 3L26 26l5.74-2.7-.36-2.68Z"/><path id="Shape" fill="#FFD400" d="M33.62 26c0-2.1-.86-4-2.24-5.38L26 26l4.86 3.05L33.62 26Z"/><path id="Shape" fill="#89F900" d="M31.38 31.38A7.6 7.6 0 0 0 33.62 26H26l2.7 5.74 2.68-.36Z"/><path id="Shape" fill="#00EE84" d="m26 26-3.05 4.28L26 33.62c2.1 0 4-.86 5.38-2.24L26 26Z"/><path id="Shape" fill="#73BCFF" d="m26 26-4.57 1.52-.81 3.86A7.6 7.6 0 0 0 26 33.62V26Z"/><path id="Shape" fill="#979FEF" d="M18.38 26c0 2.1.86 4 2.24 5.38L26 26l-4.48-1.52L18.38 26Z"/><path id="Shape" fill="#DA90F8" d="M20.62 20.62A7.6 7.6 0 0 0 18.38 26H26l-1.52-4.57-3.86-.81Z"/><path id="Shape" fill="#FF6C6C" d="M26 18.38c-2.1 0-4 .86-5.38 2.24L26 26v-7.62Z"/></g></g></svg>