<?xml version="1.0" standalone="no"?>
<!DOCTYPE svg PUBLIC "-//W3C//DTD SVG 1.1//EN" "http://www.w3.org/Graphics/SVG/1.1/DTD/svg11.dtd"><svg t="1761096338483"
    class="icon" viewBox="0 0 1024 1024" version="1.1" xmlns="http://www.w3.org/2000/svg" p-id="26553"
    xmlns:xlink="http://www.w3.org/1999/xlink" width="200" height="200">
    <path
        d="M164.571429 621.714286v-219.428572a18.285714 18.285714 0 0 1 18.285714-18.285714h18.285714a36.571429 36.571429 0 0 0 0-73.142857H182.857143a18.285714 18.285714 0 0 1-18.285714-18.285714V182.857143a18.285714 18.285714 0 0 1 18.285714-18.285714h91.428571a73.142857 73.142857 0 1 1 146.285715 0H512a18.285714 18.285714 0 0 1 18.285714 18.285714v91.428571a73.142857 73.142857 0 1 1 0 146.285715v73.142857h73.142857a73.142857 73.142857 0 1 1 146.285715 0H841.142857a18.285714 18.285714 0 0 1 18.285714 18.285714v91.428571a73.142857 73.142857 0 1 1 0 146.285715V841.142857a18.285714 18.285714 0 0 1-18.285714 18.285714h-109.714286a18.285714 18.285714 0 0 1-18.285714-18.285714v-18.285714a36.571429 36.571429 0 0 0-73.142857 0v18.285714a18.285714 18.285714 0 0 1-18.285714 18.285714h-219.428572a18.285714 18.285714 0 0 1-18.285714-18.285714v-18.285714a36.571429 36.571429 0 0 0-73.142857 0v18.285714a18.285714 18.285714 0 0 1-18.285714 18.285714H182.857143a18.285714 18.285714 0 0 1-18.285714-18.285714v-109.714286a18.285714 18.285714 0 0 1 18.285714-18.285714h18.285714a36.571429 36.571429 0 0 0 0-73.142857H182.857143a18.285714 18.285714 0 0 1-18.285714-18.285714z m109.714285 54.857143a73.142857 73.142857 0 0 1-73.142857 73.142857v73.142857h73.142857a73.142857 73.142857 0 1 1 146.285715 0h73.142857V731.428571a18.285714 18.285714 0 0 1 18.285714-18.285714h18.285714a36.571429 36.571429 0 0 0 0-73.142857H512a18.285714 18.285714 0 0 1-18.285714-18.285714v-91.428572H402.285714a18.285714 18.285714 0 0 1-18.285714-18.285714v-18.285714a36.571429 36.571429 0 0 0-73.142857 0v18.285714a18.285714 18.285714 0 0 1-18.285714 18.285714H201.142857v73.142857a73.142857 73.142857 0 0 1 73.142857 73.142858z m329.142857 0a73.142857 73.142857 0 0 1-73.142857 73.142857v73.142857h73.142857a73.142857 73.142857 0 1 1 146.285715 0h73.142857V731.428571a18.285714 18.285714 0 0 1 18.285714-18.285714h18.285714a36.571429 36.571429 0 0 0 0-73.142857H841.142857a18.285714 18.285714 0 0 1-18.285714-18.285714v-91.428572H731.428571a18.285714 18.285714 0 0 1-18.285714-18.285714v-18.285714a36.571429 36.571429 0 0 0-73.142857 0v18.285714a18.285714 18.285714 0 0 1-18.285714 18.285714h-91.428572v73.142857a73.142857 73.142857 0 0 1 73.142857 73.142858z m-402.285714-402.285715a73.142857 73.142857 0 1 1 0 146.285715v73.142857h73.142857a73.142857 73.142857 0 1 1 146.285715 0h73.142857V402.285714a18.285714 18.285714 0 0 1 18.285714-18.285714h18.285714a36.571429 36.571429 0 0 0 0-73.142857H512a18.285714 18.285714 0 0 1-18.285714-18.285714V201.142857H402.285714a18.285714 18.285714 0 0 1-18.285714-18.285714v-18.285714a36.571429 36.571429 0 0 0-73.142857 0V182.857143a18.285714 18.285714 0 0 1-18.285714 18.285714H201.142857v73.142857z"
        fill="#5677FC" p-id="26554"></path>
</svg>