<?xml version="1.0" standalone="no"?><!DOCTYPE svg PUBLIC "-//W3C//DTD SVG 1.1//EN" "http://www.w3.org/Graphics/SVG/1.1/DTD/svg11.dtd"><svg t="1761096677845" class="icon" viewBox="0 0 1024 1024" version="1.1" xmlns="http://www.w3.org/2000/svg" p-id="16095" data-spm-anchor-id="a313x.search_index.0.i7.4c063a81vh1Rdd" xmlns:xlink="http://www.w3.org/1999/xlink" width="200" height="200"><path d="M790.4256 274.432c-53.9136-86.3744-138.1888-146.5856-237.3632-169.5744-80.4352-18.688-163.2768-4.864-233.3184 38.8096-70.0416 43.7248-118.8864 112.0256-137.5232 192.4608-15.1552 65.3824-3.9424 132.8128 31.5904 189.7472 35.5328 56.9344 91.136 96.6656 156.5184 111.8208 14.848 3.4304 29.7984 5.2224 44.6976 5.3248-0.6656 49.92-1.1776 103.7312-1.1776 166.2464 0 11.3152 9.1648 20.48 20.48 20.48s20.48-9.1648 20.48-20.48c0-64.1024 0.512-119.04 1.2288-170.0352 24.2176-4.6592 47.616-13.8752 69.1712-27.2896 46.4896-29.0304 78.8992-74.3936 91.2896-127.7952 10.1376-43.776 2.6112-88.8832-21.1456-126.976-23.7568-38.144-60.9792-64.7168-104.7552-74.8544a137.5232 137.5232 0 0 0-55.04-1.5872 20.49024 20.49024 0 0 0-16.6912 23.7056c0.0512 0.1536 0.0512 0.3072 0.1024 0.4608 0 98.8672-1.28 175.9744-2.56 250.5728l-0.768 46.6432c-11.9808-0.1024-24.064-1.536-36.0448-4.3008-54.784-12.6976-101.2736-45.9264-131.0208-93.5936-29.7472-47.7184-39.1168-104.0896-26.4704-158.8224 16.1792-69.7856 58.5728-129.0752 119.296-166.9632 60.7744-37.888 132.608-49.8688 202.3936-33.6896 182.784 42.3424 296.96 225.4848 254.6176 408.2176-25.9584 112.0256-93.952 207.2064-191.488 268.032-97.536 60.8256-212.9408 80.0768-324.9152 54.1184a20.48 20.48 0 0 0-24.576 15.3088 20.48 20.48 0 0 0 15.3088 24.576 472.45824 472.45824 0 0 0 106.4448 12.2368c214.3232 0 408.7296-147.456 459.1616-365.0048 22.9888-99.1744 5.9392-201.3696-47.9232-287.7952z m-333.056 281.7536c1.2288-71.0656 2.4064-144.3328 2.5088-236.544 7.168 0.0512 14.336 0.9216 21.4528 2.56 33.1264 7.68 61.2864 27.8016 79.2576 56.6272 18.0224 28.8256 23.7056 62.976 16.0256 96.1024-9.9328 42.7008-35.84 79.0016-73.0624 102.2464-14.7456 9.1648-30.5152 15.872-46.848 20.0192 0.2048-13.824 0.4608-27.4432 0.6656-41.0112z" p-id="16096" data-spm-anchor-id="a313x.search_index.0.i8.4c063a81vh1Rdd" class="selected" fill="#5677FC"></path></svg>