<?xml version="1.0" standalone="no"?><!DOCTYPE svg PUBLIC "-//W3C//DTD SVG 1.1//EN" "http://www.w3.org/Graphics/SVG/1.1/DTD/svg11.dtd"><svg t="1761096994023" class="icon" viewBox="0 0 1024 1024" version="1.1" xmlns="http://www.w3.org/2000/svg" p-id="57563" xmlns:xlink="http://www.w3.org/1999/xlink" width="200" height="200"><path d="M450.454729 26.260336c34.160449-28.561944 88.934879-27.944673 122.315364 1.626916 72.077159 60.597832 144.441421 120.80329 216.51858 181.401122 18.814804 16.015551 39.543626 36.682168 38.414355 63.172187-14.336 33.098168-53.654729 38.251664-85.460935 37.634392-136.369047-0.167477-272.742879 1.177121-409.059289-1.06228a40.840374 40.840374 0 0 1-36.289795-16.91514c0.167477-3.416523 0.445009-10.24957 0.555066-13.666094 8.177645-7.785271 17.422355-15.85286 29.571589-14.111103 146.006131-0.110056 292.012262-0.110056 438.018392 0.392374a160538.030654 160538.030654 0 0 1-211.97757-177.482168c-19.714393-17.36015-48.783551-22.011215-73.311701-13.158878-15.345645 4.875963-26.939813 16.465346-39.203888 26.379962-62.229533 51.635439-124.674393 102.993346-186.894355 154.686206-14.115888 10.809421-23.52329 28.509308-20.551776 46.596785 1.847028 16.972561 14.953271 29.184 27.327402 39.428785C326.569869 396.182729 392.263776 451.741907 458.407477 506.679028c26.767551 21.618841 68.435738 19.489495 94.035738-2.971514 43.682692-36.457271 88.09271-72.129794 131.277757-109.261757 20.556561-16.91514 49.061084-37.466916 75.881271-21.451364 4.593645 7.000523 9.637084 14.670953 6.388037 23.523289-8.010168 17.752523-25.872748 27.494879-40.208747 39.428785-52.592449 42.840523-104.505421 86.465794-156.868187 129.536-35.505047 29.456748-92.298766 27.217346-125.564411-4.64628-86.082991-72.584374-172.778467-144.441421-258.861458-217.021009-17.250093-14.225944-27.719776-37.35686-22.96344-59.703028 2.971514-17.585047 14.953271-31.868411 28.566729-42.620412 86.858168-71.68957 173.553645-143.541832 260.363963-215.231402zM88.772187 371.032523c18.312374-8.067589 35.452411 9.632299 48.276336 20.834094 84.623551 84.958505 169.414579 169.692112 253.870655 254.822878 30.74871 33.935551 57.238729 77.402916 54.549532 124.837084-0.392374 76.890916 0.167477 153.791402-0.277532 230.687103 0.837383 9.857196-4.708486 23.188336-16.690243 21.666692-16.695028-2.292037-29.461533-14.666168-41.223178-25.705271-81.991776-82.264523-164.040972-164.543402-246.032748-246.817496-29.849121-30.911402-55.616598-69.947813-59.645607-113.625719-0.669907-80.484486-0.057421-160.964187-0.334953-241.443888 0.392374-8.622654-0.392374-19.542131 7.507738-25.255477z" fill="#5677FC" p-id="57564" data-spm-anchor-id="a313x.search_index.0.i17.433e3a81zerjQo" class=""></path><path d="M917.704972 370.807626c10.919477-6.60815 26.040224 0.784748 25.537794 14.058467 1.459439 78.570467 0 157.207925 0.669907 235.835814 2.636561 47.271477-23.628561 90.729271-54.267215 124.612186-83.613907 84.456075-167.787664 168.357084-251.573832 252.703103-11.75686 11.139589-24.700411 23.575925-41.50071 25.820112-12.154019 1.50729-17.527626-12.048748-16.690243-21.953794-0.334953-76.728224 0.110056-153.408598-0.220112-230.127252-2.856673-47.381533 23.685981-90.844112 54.324635-124.837084 82.776523-83.50385 166.112897-166.510056 248.942056-250.009122 10.244785-10.196935 21.169047-20.556561 34.77772-26.10243z" fill="#38D200" p-id="57565" data-spm-anchor-id="a313x.search_index.0.i14.433e3a81zerjQo" class="selected"></path></svg>