<?xml version="1.0" standalone="no"?>
<!DOCTYPE svg PUBLIC "-//W3C//DTD SVG 1.1//EN" "http://www.w3.org/Graphics/SVG/1.1/DTD/svg11.dtd"><svg t="1760883175446"
    class="icon" viewBox="0 0 1024 1024" version="1.1" xmlns="http://www.w3.org/2000/svg" p-id="1577"
    xmlns:xlink="http://www.w3.org/1999/xlink" width="200" height="200">
    <path
        d="M986.672595 413.948477l-81.850136-144.547701a52.820139 52.820139 0 0 0-45.833666-26.922009h-164.242325a52.820139 52.820139 0 0 0-45.833666 26.922009L613.137246 332.700623 539.779288 280.181626l29.692507-51.976944a54.687213 54.687213 0 0 0 0-53.904247L485.754585 26.922009a52.820139 52.820139 0 0 0-45.833666-26.922009H272.78764a52.820139 52.820139 0 0 0-46.074579 26.922009L143.236764 174.300435a54.687213 54.687213 0 0 0 0 53.904247l83.476297 147.378426a52.820139 52.820139 0 0 0 46.074579 26.922009h36.799435l-13.792259 97.027644h-94.558288a52.820139 52.820139 0 0 0-45.833666 26.922009L37.235117 734.723915a54.687213 54.687213 0 0 0 0 53.904246l117.083637 208.269145a52.820139 52.820139 0 0 0 45.833667 26.922009h237.600282a52.820139 52.820139 0 0 0 45.833667-26.922009l118.167745-208.269145a54.687213 54.687213 0 0 0 0-53.904246l-42.641572-75.465945 93.233267-42.581344a52.699682 52.699682 0 0 0 42.159746 22.344666h164.242324a52.820139 52.820139 0 0 0 45.833667-26.92201l81.850135-144.5477a54.687213 54.687213 0 0 0 0-53.904246z m-503.327138 112.626749a52.820139 52.820139 0 0 0-45.833667-26.922009H349.277465l13.79226-97.027644h76.851194a52.820139 52.820139 0 0 0 45.833666-26.922009l26.500412-48.483708 73.117045 52.518998-19.333255 34.209623a54.687213 54.687213 0 0 0 0 53.904246l57.999765 102.387955-92.691213 42.159745z"
        fill="#5677FC" p-id="1578"></path>
</svg>