<?xml version="1.0" standalone="no"?><!DOCTYPE svg PUBLIC "-//W3C//DTD SVG 1.1//EN" "http://www.w3.org/Graphics/SVG/1.1/DTD/svg11.dtd"><svg t="1761281061760" class="icon" viewBox="0 0 1024 1024" version="1.1" xmlns="http://www.w3.org/2000/svg" p-id="22014" data-spm-anchor-id="a313x.search_index.0.i12.3ba63a81rPnaNp" xmlns:xlink="http://www.w3.org/1999/xlink" width="200" height="200"><path d="M512 0C229.171 0 0 229.171 0 512s229.171 512 512 512 512-229.171 512-512S794.829 0 512 0z m420.864 487.629h56.934c6.759 0 12.288 5.53 12.288 12.288s-5.53 12.288-12.288 12.288h-56.934c-6.758 0-12.288-5.53-12.288-12.288 0.205-6.759 5.734-12.288 12.288-12.288z m-168.96 47.104v0.205c-0.205 2.048-0.614 4.096-0.614 6.348 0.41-1.843 0.614-4.3 0.614-6.553z m-1.229-56.73h-88.678l-40.141-69.837 53.248-78.643 1.229 1.229c13.107 12.698 24.985 27.034 34.816 42.394v0.204c2.048 3.277 4.096 6.144 5.734 9.216 7.578 12.698 13.927 26.215 19.251 40.141 1.23 3.482 2.663 6.963 3.687 10.445v0.205c5.325 14.336 8.806 29.286 10.854 44.646z m-468.173-95.437c2.048-3.276 3.687-6.348 5.735-9.216v-0.204c10.24-15.36 21.913-29.696 34.816-42.394 0.205-0.205 0.819-0.614 1.229-1.229l54.067 78.029-40.755 70.451h-88.679c2.048-15.155 5.53-29.9 10.24-44.441v-0.205c1.229-3.482 2.253-6.963 3.687-10.445 5.53-14.131 12.083-27.648 19.66-40.346z m-31.744 172.852c-0.614-3.482-1.228-6.759-1.433-10.24 0.205 3.481 0.819 6.963 1.433 10.24 0 0.204 0 0.204 0 0z m-2.662-20.685c0.205 2.253 0.614 4.3 0.82 6.758-0.206-2.048-0.615-4.096-0.615-6.349-0.205-0.204-0.205-0.204-0.205-0.41z m-0.614-40.55c0-1.434 0.204-3.277 0.204-4.711 0 1.843 0 3.277-0.204 4.71z m1.843 50.995v-0.82c-0.41 0.205-0.41 0.615 0 0.82z m1.433 10.444h92.775l38.912 67.175-52.02 76.8c-8.396-7.578-16.588-15.975-23.756-24.781-2.253-2.662-4.71-5.53-6.759-8.397-8.806-11.264-16.588-23.757-23.552-36.659 0 0 0-0.205-0.204-0.205-1.844-3.277-3.277-6.349-4.71-9.625 0 0 0-0.205-0.206-0.205-4.71-9.83-8.806-20.07-11.878-30.925-1.229-3.482-2.048-6.963-2.867-10.445 0-0.205 0-0.205-0.205-0.614-0.82-3.482-1.843-6.963-2.662-10.445v-0.614c-1.434-3.687-2.253-7.168-2.868-11.06z m135.988 182.682c2.252 1.229 4.915 2.253 7.372 3.482-2.662-1.23-4.915-2.253-7.372-3.482z m-7.988-190.464c-16.384 0-29.696-13.312-29.696-29.696s13.312-29.696 29.696-29.696 29.696 13.312 29.696 29.696-13.516 29.696-29.696 29.696z m265.626-243.917c-0.614-0.205-1.229-0.819-1.843-1.229 0.614 0.82 1.229 1.024 1.843 1.23z m-256.41-18.841c1.434-0.82 2.868-1.434 4.71-2.253h0.206c7.372-3.482 14.745-6.349 22.323-9.216 0.205 0 0.614-0.205 0.819-0.205 4.915-1.843 10.24-3.482 15.36-4.915 0.205 0 0.205 0 0.614-0.205 2.253-0.614 4.71-1.229 6.964-1.843 0.614 0 0.819-0.205 1.433-0.205 2.253-0.614 4.915-1.229 7.578-1.843h0.205c2.662-0.615 5.324-1.229 7.782-1.434 0.614 0 1.229-0.205 1.434-0.205 2.048-0.204 4.096-0.614 6.348-0.819 0.615 0 1.434-0.205 2.048-0.205 2.253-0.204 4.916-0.614 7.373-0.819h0.205c2.662-0.205 5.325-0.614 7.782-0.614h2.048c2.048 0 4.096-0.205 5.735-0.205h19.251c1.434 0 3.277 0 4.71 0.205 0.82 0 1.844 0 2.663 0.205 1.433 0 2.867 0.204 4.3 0.204 0.82 0 1.844 0.205 2.663 0.205 1.434 0 2.867 0.205 4.71 0.615 0.82 0 1.434 0.204 2.253 0.204 1.843 0.205 3.277 0.205 4.915 0.615 0.615 0 1.434 0.205 2.048 0.205 2.048 0.204 4.096 0.614 6.144 0.819h0.615c4.71 0.819 9.216 1.843 13.926 2.867 0.205 0 0.615 0 0.615 0.205 2.048 0.614 4.096 0.819 6.144 1.433 0.204 0 0.614 0.205 1.228 0.205 2.048 0.615 3.687 1.229 5.735 1.843 0.205 0 0.614 0.205 1.229 0.205 2.048 0.615 3.686 1.229 5.734 1.843 0.205 0 0.614 0.205 0.614 0.205 11.264 3.687 22.119 8.192 32.564 13.312l-47.514 69.837h-128l-47.514-70.246z m56.73 384.204h114.893l49.152 71.27c-2.048 0.82-4.096 1.844-6.144 2.663-0.205 0-0.615 0.205-0.82 0.205-1.843 0.82-3.481 1.434-5.324 2.253-0.205 0.205-0.82 0.205-1.229 0.614-1.843 0.615-3.277 1.434-4.915 2.048-0.615 0.205-0.82 0.205-1.434 0.615-1.843 0.614-3.277 1.228-4.915 1.843-0.614 0.205-0.82 0.205-1.434 0.614-1.843 0.615-3.481 1.229-5.324 1.843-0.205 0-0.82 0.205-1.23 0.205a188.87 188.87 0 0 1-5.734 1.843c-0.204 0-0.614 0.205-0.819 0.205-4.3 1.229-8.806 2.253-13.312 3.482h-0.205c-2.048 0.614-4.096 0.819-6.144 1.433-0.614 0-1.228 0.205-1.843 0.205-1.843 0.205-3.277 0.615-4.915 0.82-0.82 0-1.434 0.204-2.253 0.204-1.433 0.205-2.867 0.615-4.3 0.615-0.82 0-1.844 0.204-2.663 0.204-1.434 0.205-2.867 0.205-4.3 0.615-0.82 0-1.844 0.205-2.663 0.205-1.434 0.204-2.867 0.204-4.096 0.204-0.82 0-1.843 0.205-2.663 0.205-1.433 0-2.867 0.205-4.3 0.205-0.82 0-1.844 0-2.663 0.205-1.433 0-3.277 0-4.71 0.205h-18.432c-1.843 0-3.277 0-4.915-0.205-0.82 0-1.844 0-2.663-0.205-1.433 0-2.867-0.205-4.71-0.205-0.82 0-1.843-0.205-2.663-0.205-1.433-0.204-3.276-0.204-4.71-0.614-0.82 0-1.434-0.205-2.253-0.205-1.843-0.205-3.481-0.614-5.325-0.614-0.614 0-1.228 0-1.433-0.205-4.71-0.614-9.216-1.434-13.927-2.662-0.204 0-0.614 0-0.614-0.205-2.048-0.205-4.096-0.82-6.144-1.434-0.205 0-0.82-0.205-1.229-0.205-1.843-0.614-3.686-0.819-5.53-1.433-0.204 0-0.819-0.205-1.228-0.205-2.048-0.614-3.687-1.229-5.735-1.843-0.204 0-0.614-0.205-0.819-0.205-10.854-3.277-21.299-7.373-31.334-11.878l49.971-72.5z m278.323-38.092c-3.481 6.348-6.963 12.492-11.059 18.636v0.205c-1.229 1.843-2.662 3.687-3.686 5.53 0 0.205-0.205 0.205-0.205 0.614-1.229 1.843-2.663 3.482-3.687 5.53 0 0 0 0.205-0.204 0.205-5.53 7.577-11.674 14.745-18.023 21.913-1.433 1.843-3.277 3.482-4.71 4.915l-0.205 0.205c-2.662 2.663-5.325 5.325-7.782 7.578l-53.453-77.005 36.864-63.898h92.774c-1.229 7.373-2.867 14.336-4.71 21.504 0 0.205 0 0.615-0.205 0.82l-1.843 6.144c0 0.204-0.205 0.614-0.205 0.819-0.614 2.048-1.229 4.096-2.048 6.144 0 0.205 0 0.205-0.205 0.614-2.253 6.963-4.915 13.722-7.577 20.07v0.205c-0.82 2.048-1.844 4.096-2.868 6.144 0 0.205-0.204 0.615-0.204 0.615-0.82 2.048-1.844 3.686-2.663 5.734 0 0.205-0.205 0.615-0.205 0.615-1.433 2.048-2.662 4.096-3.89 6.144zM702.26 169.37l-27.033 39.936h-0.205c-1.229-0.615-2.253-1.23-3.687-2.048-1.228-0.615-2.252-1.23-3.481-1.844-1.229-0.614-2.663-1.228-3.687-1.843-1.228-0.614-2.252-1.229-3.481-1.843-1.434-0.614-2.663-1.229-4.096-1.843-1.229-0.615-2.253-1.229-3.277-1.434-1.434-0.614-3.277-1.433-4.71-2.048-0.82-0.205-1.844-0.819-2.868-1.229-2.252-1.228-4.915-2.048-7.577-2.867-0.82-0.205-1.843-0.614-2.663-1.229-1.843-0.614-3.276-1.228-4.915-1.843-1.229-0.205-2.048-0.819-3.277-1.229-1.433-0.614-2.867-1.228-4.3-1.433-1.23-0.205-2.253-0.82-3.482-1.229-1.434-0.614-2.867-0.82-4.3-1.434-1.23-0.204-2.254-0.614-3.482-1.228-1.434-0.205-2.868-0.82-4.301-1.23-1.229-0.204-2.253-0.614-3.482-0.818-1.433-0.205-2.867-0.82-4.3-1.23-1.23-0.204-2.253-0.614-3.687-0.818a17.001 17.001 0 0 1-4.3-1.23c-1.23-0.204-2.663-0.614-3.687-0.818-1.434-0.205-2.867-0.615-4.301-0.82-1.229-0.204-2.662-0.614-3.686-0.819-1.434-0.205-2.868-0.614-4.301-0.819-1.229-0.205-2.663-0.614-3.687-0.614-1.433-0.205-2.867-0.615-4.3-0.82-1.23-0.204-2.663-0.204-3.687-0.614-1.433-0.205-2.867-0.205-4.71-0.614-1.229-0.205-2.663-0.205-3.687-0.615-1.433-0.205-3.276-0.205-4.71-0.614-1.229 0-2.253-0.205-3.686-0.205-1.844-0.205-3.277-0.205-4.916-0.205-1.228 0-2.252-0.205-3.481-0.205-1.843 0-3.482-0.204-5.325-0.204-1.229 0-2.253 0-3.482-0.205-2.048 0-3.686-0.205-5.734-0.205h-23.347c-2.048 0-3.687 0-5.735 0.205-1.228 0-2.252 0-3.481 0.205-1.843 0-3.482 0.204-5.325 0.204-1.229 0-2.253 0.205-3.482 0.205-1.843 0-3.276 0.205-4.915 0.205-1.229 0-2.253 0.205-3.686 0.205-1.434 0.205-3.277 0.205-4.71 0.614-1.23 0.205-2.663 0.205-3.687 0.615-1.434 0.204-3.277 0.204-4.71 0.614-1.23 0.205-2.663 0.205-3.687 0.614-1.433 0.205-2.867 0.615-4.3 0.82-1.23 0.204-2.663 0.614-3.687 0.614-1.434 0.205-2.867 0.614-4.3 0.82-1.23 0.204-2.663 0.614-3.687 0.818-1.434 0.205-2.867 0.615-4.301 0.82-1.229 0.204-2.662 0.614-3.686 0.819a17.001 17.001 0 0 0-4.301 1.229c-1.229 0.204-2.253 0.614-3.687 0.819-1.433 0.205-2.867 0.819-4.3 1.229-1.23 0.204-2.253 0.614-3.482 0.819-1.434 0.205-2.867 0.819-4.3 1.229-1.23 0.204-2.254 0.614-3.482 1.228-1.434 0.615-2.868 0.82-4.301 1.434-1.229 0.205-2.253 0.82-3.482 1.229-1.433 0.614-2.867 1.229-4.3 1.433-1.23 0.205-2.049 0.82-3.277 1.23-1.844 0.614-3.277 1.228-4.916 1.842-0.819 0.205-1.843 0.615-2.662 1.23-2.662 0.818-4.915 2.047-7.578 2.866-0.819 0.205-1.843 0.82-2.867 1.23-1.433 0.614-3.277 1.433-4.71 2.047-1.229 0.615-2.253 0.82-3.277 1.434-1.434 0.614-2.662 1.229-4.096 1.843-1.229 0.614-2.253 1.229-3.482 1.843-1.228 0.615-2.662 1.229-3.686 1.843-1.229 0.615-2.253 1.23-3.482 1.844-1.228 0.614-2.252 1.228-3.686 2.048-0.205 0.204-0.614 0.204-1.229 0.614l-29.491-39.731c56.73-31.744 121.856-49.767 191.488-49.767 70.042-0.204 134.758 17.408 191.283 48.948zM92.57 547.84H35.227c-6.759 0-12.288-5.53-12.288-12.288s5.53-12.288 12.288-12.288H92.16c6.758 0 12.288 5.53 12.288 12.288 0.205 6.758-5.325 12.288-11.878 12.288z m0-35.84H35.227c-6.759 0-12.288-5.53-12.288-12.288s5.53-12.288 12.288-12.288H92.16c6.758 0 12.288 5.53 12.288 12.288C104.653 506.47 99.123 512 92.57 512z m164.25-297.574l27.443 39.936c-1.228 1.228-2.662 2.252-3.686 3.481l-0.614 0.615c-4.916 4.71-9.83 9.625-14.746 14.54l-1.434 1.434c-1.228 1.229-2.252 2.662-3.686 3.686-0.614 0.615-1.229 1.23-1.843 2.048-1.229 1.23-2.253 2.663-3.482 3.687-0.614 0.614-1.229 1.433-1.843 2.048-1.229 1.229-2.253 2.662-3.277 3.686-0.614 0.82-1.229 1.434-1.843 2.253-1.229 1.229-2.048 2.662-3.277 3.686-0.614 0.82-1.229 1.434-1.843 2.253-1.229 1.229-2.048 2.663-3.277 4.096-0.614 0.82-1.229 1.434-1.843 2.253-0.82 1.434-2.048 2.662-2.867 4.096-0.615 0.82-1.229 1.434-1.843 2.253-0.82 1.433-2.048 2.662-2.868 4.096-0.614 0.819-1.228 1.433-1.843 2.253-0.819 1.433-2.048 2.867-2.867 4.3-0.614 0.82-0.82 1.434-1.434 2.253-0.819 1.434-2.048 2.867-2.867 4.301-0.614 0.82-0.819 1.434-1.433 2.253-0.82 1.433-2.048 3.277-2.868 4.71-0.204 0.615-0.819 1.434-1.228 2.048-0.82 1.843-2.048 3.277-2.868 4.915-0.204 0.615-0.614 1.23-0.819 1.844-0.819 1.843-2.048 3.481-2.867 5.324-0.205 0.205-0.205 0.615-0.614 1.23-5.735 11.058-11.264 22.322-15.975 34.406 0 0.204 0 0.204-0.205 0.614-0.819 2.048-1.433 4.096-2.252 6.144-0.205 0.614-0.205 0.82-0.615 1.434-0.614 2.048-1.433 3.686-2.048 5.734-0.205 0.614-0.614 1.229-0.614 1.843l-1.843 5.53c-0.205 0.614-0.615 1.433-0.615 2.048l-1.843 5.53c-0.205 0.819-0.614 1.433-0.614 2.252-0.615 1.843-1.23 3.687-1.434 5.53-0.205 0.819-0.205 1.433-0.614 2.253-0.615 1.843-0.82 3.686-1.434 5.53-0.205 0.818-0.205 1.433-0.614 2.252-0.615 1.843-0.82 3.686-1.23 5.53-0.204 0.819-0.204 1.433-0.614 2.252-0.204 2.048-0.819 3.687-1.228 5.735-0.205 0.819-0.205 1.433-0.205 2.253-0.205 2.048-0.82 3.686-1.229 5.734 0 0.614-0.205 1.434-0.205 2.048-0.205 2.048-0.614 4.096-0.819 6.144 0 0.614-0.205 1.229-0.205 1.843-0.205 2.048-0.614 4.301-0.819 6.349 0 0.205 0 0.82-0.205 1.229-0.205 2.253-0.614 4.71-0.819 6.963h-48.128c8.806-104.448 59.392-197.632 134.963-262.758zM122.47 555.622h48.333c0 0.82 0.205 1.844 0.205 2.663 0.205 1.843 0.614 3.686 0.82 5.53 0.204 1.228 0.204 2.252 0.614 3.481 0.204 1.434 0.614 3.277 0.819 4.71 0.205 1.23 0.614 2.663 0.614 3.687 0.205 1.433 0.615 2.867 0.82 4.3 0.204 1.23 0.614 2.663 0.819 3.687 0.204 1.434 0.614 2.867 0.819 4.3 0.205 1.23 0.614 2.663 0.819 3.687 0.205 1.434 0.614 2.867 0.82 4.096s0.614 2.663 0.818 3.687c0.205 1.433 0.82 2.662 1.23 4.096 0.204 1.228 0.614 2.662 1.228 3.686 0.205 1.434 0.82 2.662 1.229 4.096 0.205 1.229 0.819 2.662 1.229 3.686 0.204 1.434 0.819 2.663 1.433 4.096 0.205 1.23 0.82 2.253 1.229 3.687 0.614 1.433 0.82 2.662 1.434 4.096 0.204 1.229 0.819 2.253 1.228 3.481 0.615 1.434 1.23 2.868 1.434 4.096 0.205 1.23 0.82 2.253 1.229 3.482 0.614 1.434 1.229 2.867 1.843 4.71 0.205 0.82 0.82 2.048 1.229 2.868 1.229 2.252 2.048 4.915 3.277 7.372 0.204 0.82 0.819 1.844 1.228 2.663 0.615 1.433 1.434 3.277 2.048 4.71 0.615 1.229 1.23 2.048 1.434 3.277 0.614 1.434 1.434 2.662 2.048 4.096 0.614 1.229 1.229 2.048 1.843 3.277a59.56 59.56 0 0 0 2.048 3.686c0.615 1.229 1.229 2.253 1.843 3.277a59.56 59.56 0 0 0 2.048 3.686c0.615 1.23 1.23 2.253 2.048 3.277 0.615 1.229 1.434 2.253 2.048 3.482 0.615 1.229 1.434 2.048 2.048 3.277 0.82 1.228 1.434 2.252 2.253 3.481 0.615 1.229 1.434 2.048 2.048 3.277 0.82 1.229 1.434 2.253 2.253 3.482 0.614 1.228 1.434 2.048 2.048 3.276 0.82 1.23 1.843 2.253 2.253 3.482 0.614 0.82 1.433 2.048 2.048 2.867 0.819 1.229 1.843 2.253 2.662 3.482 0.615 0.819 1.434 2.048 2.048 2.867 0.82 1.229 1.843 2.253 2.867 3.482 0.615 0.819 1.434 1.843 2.048 2.662 1.23 1.434 2.253 2.662 3.277 4.096 0.615 0.614 1.229 1.434 1.843 2.048a64.54 64.54 0 0 1 4.916 6.144c0.614 0.614 1.228 1.434 1.843 2.048 1.229 1.229 2.253 2.662 3.481 3.686 0.82 0.82 1.434 1.844 2.253 2.253 1.229 1.229 2.048 2.253 3.277 3.482 0.82 0.819 1.843 1.843 2.253 2.662l3.277 3.277 2.662 2.662c1.229 0.82 2.048 2.048 3.277 2.868l2.662 2.662c1.229 0.82 2.048 2.048 3.277 2.867 0.82 0.82 1.843 1.843 2.662 2.253 1.23 0.82 2.048 2.048 3.277 2.867 0.82 0.82 1.843 1.843 2.867 2.253 0.82 0.82 1.844 1.434 2.663 2.253l-27.034 39.936c-77.21-62.26-129.843-154.215-141.517-258.663z m206.03 302.49l27.033-39.936c0.614 0.205 1.229 0.614 1.843 0.82 1.434 0.614 2.662 1.433 4.096 2.047 1.229 0.615 2.048 1.229 3.277 1.434 1.433 0.614 2.662 1.229 4.096 1.843 1.229 0.614 2.253 0.82 3.277 1.434 1.433 0.614 2.662 1.228 4.096 1.843 1.228 0.614 2.048 0.819 3.276 1.433l4.301 1.844c1.229 0.204 2.048 0.819 3.277 1.228l4.3 1.844c1.23 0.204 2.049 0.819 3.278 1.228 1.843 0.615 3.276 1.23 4.915 1.844 0.819 0.204 1.843 0.614 2.662 0.819 2.253 0.819 4.301 1.433 6.759 2.048 0.204 0 0.614 0.205 1.228 0.205 2.663 0.819 5.325 1.433 7.783 2.252 0.819 0.205 1.843 0.615 2.662 0.615 1.843 0.614 3.482 0.819 5.325 1.433 1.229 0.205 2.048 0.615 3.277 0.82 1.843 0.204 3.277 0.819 4.915 1.228 1.229 0.205 2.253 0.615 3.482 0.82 1.433 0.204 3.276 0.614 4.71 1.228 1.229 0.205 2.253 0.615 3.482 0.615 1.433 0.205 3.276 0.614 4.71 0.819 1.229 0.205 2.253 0.205 3.482 0.614 1.433 0.205 3.276 0.615 4.71 0.82 1.229 0.204 2.253 0.204 3.686 0.614 1.434 0.205 3.277 0.614 4.71 0.614 1.23 0.205 2.254 0.205 3.687 0.615 1.434 0.205 3.277 0.205 4.71 0.614 1.23 0 2.253 0.205 3.482 0.205 1.843 0.205 3.277 0.205 4.915 0.205 1.23 0 2.253 0.205 3.482 0.205 1.843 0 3.482 0.204 5.325 0.204 1.229 0 2.253 0 3.277 0.205 2.048 0 3.686 0.205 5.734 0.205h22.528c2.048 0 3.686 0 5.734-0.205 1.23 0 2.253 0 3.277-0.205 1.843 0 3.482-0.204 5.325-0.204 1.229 0 2.253-0.205 3.482-0.205 1.843 0 3.276-0.205 4.915-0.205 1.229 0 2.253-0.205 3.686-0.205 1.434-0.205 3.277-0.205 4.71-0.614 1.23-0.205 2.253-0.205 3.687-0.615 1.434-0.204 3.277-0.204 4.71-0.614 1.23-0.205 2.253-0.205 3.687-0.614s3.277-0.615 4.71-0.82c1.229-0.204 2.253-0.204 3.482-0.614 1.433-0.205 3.277-0.614 4.71-0.82 1.229-0.204 2.253-0.614 3.482-0.614 1.433-0.204 3.277-0.614 4.71-1.228 1.229-0.205 2.253-0.615 3.482-0.82 1.843-0.204 3.277-0.819 4.915-1.228 1.229-0.205 2.048-0.615 3.277-0.82 1.843-0.614 3.481-0.819 5.53-1.433 0.819-0.205 1.843-0.615 2.662-0.615 2.662-0.819 5.325-1.433 7.782-2.252 0.205 0 0.615-0.205 0.82-0.205a65.34 65.34 0 0 0 6.758-2.253c0.819-0.205 1.843-0.614 2.662-0.82 1.843-0.614 3.277-1.228 4.915-1.842 1.23-0.205 2.048-0.82 3.277-1.23l4.301-1.842c1.229-0.205 2.048-0.82 3.277-1.23l4.3-1.842c1.23-0.615 2.049-0.82 3.277-1.434 1.434-0.614 2.868-1.229 4.096-1.843s2.253-0.82 3.277-1.434c1.434-0.614 2.663-1.229 4.096-1.843 1.229-0.614 2.048-1.229 3.277-1.434 1.434-0.614 2.662-1.433 4.096-2.048 1.229-0.614 2.048-1.228 3.277-1.843s2.048-1.229 3.277-1.843l27.443 39.936c-55.91 30.925-120.218 48.333-188.416 48.333-68.608 0.41-131.072-16.18-185.754-45.261z m436.018-46.49l-27.443-39.526c0.615-0.205 0.82-0.82 1.434-1.229 1.229-0.819 2.048-1.843 3.277-2.867l2.662-2.662c1.229-0.82 2.048-2.048 3.277-2.868l2.662-2.662c1.229-0.82 2.048-2.048 3.277-2.867l2.662-2.663 3.277-3.276c0.82-0.82 1.843-1.844 2.253-2.663 1.229-1.229 2.048-2.253 3.277-3.481 0.819-0.82 1.433-1.844 2.253-2.253 1.228-1.229 2.252-2.663 3.481-3.687 0.615-0.614 1.229-1.433 1.843-2.048a64.54 64.54 0 0 0 4.916-6.144c0.614-0.614 1.228-1.433 1.843-2.048 1.229-1.433 2.253-2.662 3.277-4.096 0.614-0.819 1.433-1.843 2.048-2.662 0.819-1.229 1.843-2.253 2.867-3.482 0.614-0.819 1.433-2.048 2.048-2.867 0.819-1.229 1.843-2.253 2.662-3.481 0.615-0.82 1.434-2.048 2.048-2.868 0.82-1.228 1.843-2.252 2.253-3.481 0.614-1.229 1.434-2.048 2.048-3.277 0.82-1.229 1.434-2.253 2.253-3.482 0.614-1.228 1.433-2.048 2.048-3.276 0.819-1.23 1.433-2.253 2.253-3.482 0.614-1.229 1.433-2.048 2.048-3.277 0.614-1.229 1.433-2.253 2.048-3.481 0.614-1.23 1.228-2.253 2.048-3.277 0.614-1.229 1.433-2.253 2.048-3.687 0.614-1.228 1.228-2.252 1.843-3.276a59.56 59.56 0 0 1 2.048-3.687c0.614-1.229 1.229-2.048 1.843-3.277 0.614-1.433 1.434-2.662 2.048-4.096 0.614-1.228 1.229-2.048 1.434-3.276 0.819-1.434 1.433-3.277 2.048-4.71 0.204-0.82 0.819-1.844 1.228-2.663 1.23-2.253 2.048-4.915 3.277-7.373 0.205-0.82 0.82-2.048 1.229-2.867l1.843-4.301c0.615-1.229 0.82-2.253 1.434-3.482 0.614-1.433 1.229-2.662 1.433-4.096 0.615-1.228 0.82-2.252 1.23-3.481 0.614-1.434 0.818-2.663 1.433-4.096 0.205-1.229 0.819-2.253 1.229-3.687 0.614-1.433 0.819-2.662 1.433-4.096 0.205-1.228 0.82-2.662 1.229-3.686 0.205-1.434 0.82-2.662 1.229-4.096 0.205-1.229 0.614-2.662 1.229-3.686 0.204-1.434 0.819-2.663 1.228-4.096 0.205-1.23 0.615-2.663 0.82-3.687 0.204-1.433 0.614-2.662 0.819-4.096 0.205-1.229 0.614-2.662 0.819-3.686 0.205-1.434 0.614-2.867 0.82-4.301 0.204-1.229 0.614-2.662 0.818-3.686 0.205-1.434 0.615-2.868 0.82-4.301 0.204-1.229 0.614-2.663 0.614-3.687 0.205-1.433 0.614-2.867 0.82-4.71 0.204-1.229 0.204-2.253 0.614-3.482 0.204-1.843 0.614-3.481 0.819-5.324 0-0.82 0.205-2.048 0.205-2.868h48.332c-11.468 101.376-62.464 191.898-137.216 254.976z m89.498-333.619c-0.205-2.253-0.614-4.71-0.82-6.963 0-0.205 0-0.82-0.204-1.229-0.205-2.048-0.614-4.3-0.82-6.349 0-0.614-0.204-1.228-0.204-1.843-0.205-2.048-0.614-4.096-0.82-6.144 0-0.614-0.204-1.433-0.204-2.048-0.205-2.048-0.614-3.686-1.229-5.734 0-0.82-0.205-1.434-0.205-2.253-0.204-2.048-0.819-3.686-1.228-5.734-0.205-0.82-0.205-1.434-0.615-2.253-0.205-1.843-0.819-3.687-1.229-5.53-0.204-0.819-0.204-1.433-0.614-2.253-0.614-1.843-0.82-3.686-1.434-5.53-0.204-0.818-0.204-1.433-0.614-2.252-0.614-1.843-1.229-3.686-1.434-5.53-0.204-0.819-0.614-1.433-0.614-2.252l-1.843-5.53c-0.205-0.614-0.615-1.434-0.615-2.048l-1.843-5.53c-0.205-0.614-0.614-1.228-0.614-1.843-0.615-2.048-1.434-3.686-2.048-5.734-0.205-0.615-0.205-0.82-0.615-1.434-0.819-2.048-1.433-4.096-2.252-6.144 0-0.205 0-0.205-0.205-0.614-4.71-11.674-9.83-23.347-15.975-34.407-0.204-0.204-0.204-0.614-0.614-1.228-0.82-1.844-2.048-3.482-2.867-5.325-0.205-0.615-0.615-1.229-0.82-1.843-0.819-1.844-2.047-3.277-2.867-4.916-0.204-0.614-0.819-1.433-1.228-2.048-0.82-1.433-1.844-3.276-2.868-4.71-0.614-0.82-0.819-1.434-1.433-2.253-0.82-1.433-1.843-2.867-2.867-4.3-0.615-0.82-0.82-1.434-1.434-2.253-0.82-1.434-2.048-2.868-2.867-4.301-0.615-0.82-1.229-1.434-1.843-2.253-0.82-1.434-2.048-2.662-2.868-4.096-0.614-0.82-1.228-1.434-1.843-2.253-0.819-1.433-2.048-2.662-2.867-4.096-0.614-0.819-1.229-1.433-1.843-2.253-0.82-1.433-2.048-2.662-3.277-4.096-0.614-0.819-1.229-1.433-1.843-2.252-1.229-1.23-2.048-2.663-3.277-3.687-0.614-0.819-1.229-1.433-1.843-2.253-1.229-1.228-2.048-2.662-3.277-3.686-0.614-0.614-1.229-1.434-1.843-2.048-1.229-1.229-2.253-2.662-3.482-3.686-0.614-0.615-1.229-1.23-1.843-2.048-1.229-1.23-2.253-2.663-3.686-3.687l-1.434-1.433c-4.71-4.916-9.626-9.83-14.746-14.336l-0.614-0.615c-1.229-1.229-2.662-2.253-4.096-3.481-0.205-0.205-0.614-0.615-0.82-0.615l27.034-39.936c76.186 64.922 127.386 158.515 136.397 264.397h-47.923v-1.229z m135.987 69.837H933.07c-6.759 0-12.288-5.53-12.288-12.288s5.53-12.288 12.288-12.288h56.934c6.759 0 12.288 5.53 12.288 12.288-0.205 6.758-5.734 12.288-12.288 12.288z" fill="#5677FC" p-id="22015" data-spm-anchor-id="a313x.search_index.0.i13.3ba63a81rPnaNp" class="selected"></path></svg>