<?xml version="1.0" standalone="no"?><!DOCTYPE svg PUBLIC "-//W3C//DTD SVG 1.1//EN" "http://www.w3.org/Graphics/SVG/1.1/DTD/svg11.dtd"><svg t="1761096614871" class="icon" viewBox="0 0 1024 1024" version="1.1" xmlns="http://www.w3.org/2000/svg" p-id="15079" xmlns:xlink="http://www.w3.org/1999/xlink" width="200" height="200"><path d="M831.62666667 124.10666667A305.22666667 305.22666667 0 0 0 614.4 34.13333333H136.53333333a34.13333333 34.13333333 0 0 0-34.13333333 34.13333334v887.46666666a34.13333333 34.13333333 0 0 0 34.13333333 34.13333334h273.06666667a34.13333333 34.13333333 0 0 0 34.13333333-34.13333334V785.06666667h170.66666667a307.2 307.2 0 0 0 307.2-307.2V341.33333333a305.22666667 305.22666667 0 0 0-89.97333333-217.22666666zM614.4 102.4c131.744 0 238.93333333 107.18933333 238.93333333 238.93333333S746.144 580.26666667 614.4 580.26666667H409.6a34.13333333 34.13333333 0 0 0-34.13333333 34.13333333v307.2h-68.26666667V375.46666667h68.26666667v102.4a34.13333333 34.13333333 0 0 0 34.13333333 34.13333333h204.8c94.10133333 0 170.66666667-76.56533333 170.66666667-170.66666667s-76.56533333-170.66666667-170.66666667-170.66666666H170.66666667v-68.26666667z m-34.13333333 307.2a34.13333333 34.13333333 0 0 1-34.13333334 34.13333333h-102.4v-68.26666666h136.53333334zM170.66666667 238.93333333h443.73333333a102.4 102.4 0 0 1 29.728 200.39466667A102.16533333 102.16533333 0 0 0 648.53333333 409.6v-42.66666667a59.79733333 59.79733333 0 0 0-59.73333333-59.73333333H273.06666667a34.13333333 34.13333333 0 0 0-34.13333334 34.13333333v580.26666667h-68.26666666z m443.73333333 477.86666667H443.73333333v-68.26666667h170.66666667a305.22666667 305.22666667 0 0 0 217.22666667-89.97333333q6.08-6.08 11.73333333-12.448C813.952 644.71466667 722.44266667 716.8 614.4 716.8z" fill="#5677FC" p-id="15080"></path></svg>