<?xml version="1.0" standalone="no"?><!DOCTYPE svg PUBLIC "-//W3C//DTD SVG 1.1//EN" "http://www.w3.org/Graphics/SVG/1.1/DTD/svg11.dtd"><svg t="1761096738317" class="icon" viewBox="0 0 1024 1024" version="1.1" xmlns="http://www.w3.org/2000/svg" p-id="1559" xmlns:xlink="http://www.w3.org/1999/xlink" width="200" height="200"><path d="M405.338101 202.740559l10.068379-37.699218a1423.417207 1423.417207 0 0 0 208.003576-33.580335q-20.766034 58.751285-44.735643 153.77162L515.346592 521.210279l77.114637 4.17609q53.545475 2.459888 116.873296-26.829944t113.15486-102.972067a279.054302 279.054302 0 0 0 49.884246-159.263464q0-84.608715-60.696313-134.035307t-185.406927-49.541006q-142.330279 0-278.768268 70.821899T136.924246 304.568492q-74.025475 110.180112-74.082682 217.385474a204.28514 204.28514 0 0 0 19.278659 91.530727q19.335866 39.072179 68.648045 76.71419 41.074413 30.147933 41.074414 58.636871a40.61676 40.61676 0 0 1-13.443576 31.006034 45.250503 45.250503 0 0 1-31.978547 12.585475q-49.712626 0-95.99285-67.904358t-46.280223-171.620112q0-190.155084 145.819888-346.901452 191.013184-205.944134 512.858101-205.944134 122.307933 0 200.681117 31.806927t117.33095 87.183017a203.713073 203.713073 0 0 1 39.014972 119.790838q0 82.148827-54.689609 161.322905t-161.151285 127.799776q-106.461676 48.625698-236.721341 48.625699-20.079553 0-62.64134-2.517095L437.259441 834.81743q-16.761564 66.188156-37.642011 130.602905A490.261453 490.261453 0 0 0 513.344358 981.323799a416.693631 416.693631 0 0 0 131.575419-23.454749l-10.011174 46.909497q-65.501676 17.791285-110.752178 17.791285a1254.371397 1254.371397 0 0 1-127.22771-9.267486 922.744134 922.744134 0 0 0-108.692737-8.352178A753.755531 753.755531 0 0 0 121.707263 1024l10.068379-44.392402q87.011397-14.244469 118.875531-41.074414 45.193296-37.756425 73.682235-151.712178L450.703017 284.889385a249.592849 249.592849 0 0 0 8.352179-49.426592 32.378994 32.378994 0 0 0-10.869274-23.912402 36.154637 36.154637 0 0 0-25.971844-10.468827 122.70838 122.70838 0 0 0-16.875977 1.658995z" p-id="1560" data-spm-anchor-id="a313x.search_index.0.i0.16c13a81nZEoar" class="selected" fill="#5677FC"></path></svg>