<?xml version="1.0" standalone="no"?><!DOCTYPE svg PUBLIC "-//W3C//DTD SVG 1.1//EN" "http://www.w3.org/Graphics/SVG/1.1/DTD/svg11.dtd"><svg t="1760779468431" class="icon" viewBox="0 0 1024 1024" version="1.1" xmlns="http://www.w3.org/2000/svg" p-id="9000" xmlns:xlink="http://www.w3.org/1999/xlink" width="200" height="200"><path d="M593.712 121.728A32 32 0 0 1 625.088 96h57.248a32 32 0 0 1 31.376 25.728l13.984 69.92 59.36-39.552a32 32 0 0 1 40.368 4l40.48 40.48a32 32 0 0 1 4 40.384l-39.568 59.328 69.936 14A32 32 0 0 1 928 341.648v57.264a32 32 0 0 1-25.728 31.376l-69.92 13.984 39.552 59.36a32 32 0 0 1-4 40.368l-40.48 40.48a32 32 0 0 1-40.384 4l-59.344-39.568-13.984 69.92a32 32 0 0 1-31.36 25.744h-57.264a32 32 0 0 1-31.36-25.728l-14-69.936-59.36 39.552A32 32 0 0 1 480 584.48L439.52 544a32 32 0 0 1-4-40.368l39.568-59.344-69.92-13.984a32 32 0 0 1-25.744-31.376v-57.248a32 32 0 0 1 25.728-31.376l69.936-13.984-39.568-59.36a32 32 0 0 1 4-40.368L480 156.096a32 32 0 0 1 40.384-4l59.344 39.568 13.984-69.936zM653.712 480a109.712 109.712 0 1 0 0-219.424 109.712 109.712 0 0 0 0 219.424z" fill="#0F7AED" p-id="9001"></path><path d="M306.288 376.944v34.784a32 32 0 0 0 25.728 31.376c42.464 8.48 62.704 57.376 38.688 93.392a32 32 0 0 0 4 40.384l56 56a32 32 0 0 0 40.368 4c36.032-24.032 84.896-3.792 93.392 38.672a32 32 0 0 0 31.376 25.728h40.88l15.744 23.616a32 32 0 0 1-4 40.368L608 805.76a32 32 0 0 1-40.368 4l-59.344-39.552-13.984 69.92a32 32 0 0 1-31.376 25.728h-57.248a32 32 0 0 1-31.376-25.712l-14-69.952-59.344 39.568a32 32 0 0 1-40.368-4l-40.48-40.48a32 32 0 0 1-4-40.368l39.568-59.36-69.936-13.968A32 32 0 0 1 160 620.16v-57.232a32 32 0 0 1 25.728-31.392l69.92-13.984-39.552-59.344a32 32 0 0 1 4-40.368l40.48-40.48a32 32 0 0 1 40.368-4l5.344 3.568z" fill="#38D200" p-id="9002"></path></svg>